<svg xmlns="http://www.w3.org/2000/svg" width="960" height="540" viewBox="0 0 960 540">
  <defs>
    <linearGradient id="bg" x1="0" y1="0" x2="1" y2="1"><stop stop-color="#1d4ed8"/><stop offset="0.48" stop-color="#2563eb"/><stop offset="1" stop-color="#06b6d4"/></linearGradient>
    <linearGradient id="card" x1="0" y1="0" x2="1" y2="1"><stop stop-color="#ffffff" stop-opacity="0.96"/><stop offset="1" stop-color="#dbeafe" stop-opacity="0.86"/></linearGradient>
    <filter id="shadow" x="-20%" y="-20%" width="140%" height="140%"><feDropShadow dx="0" dy="20" stdDeviation="24" flood-color="#0f172a" flood-opacity="0.22"/></filter>
  </defs>
  <rect width="960" height="540" rx="36" fill="url(#bg)"/>
  <circle cx="820" cy="70" r="150" fill="#fff" opacity="0.12"/>
  <circle cx="110" cy="450" r="180" fill="#bfdbfe" opacity="0.18"/>
  <g filter="url(#shadow)">
    <rect x="110" y="82" width="740" height="376" rx="32" fill="url(#card)"/>
    <rect x="165" y="145" width="290" height="188" rx="22" fill="#0f172a" opacity="0.92"/>
    <rect x="190" y="170" width="240" height="122" rx="12" fill="#60a5fa" opacity="0.26"/>
    <rect x="252" y="333" width="116" height="18" rx="9" fill="#1e40af" opacity="0.5"/>
    <rect x="220" y="365" width="180" height="18" rx="9" fill="#1e3a8a" opacity="0.34"/>
    <rect x="520" y="150" width="250" height="34" rx="17" fill="#2563eb" opacity="0.18"/>
    <rect x="520" y="206" width="280" height="22" rx="11" fill="#1d4ed8" opacity="0.18"/>
    <rect x="520" y="246" width="230" height="22" rx="11" fill="#06b6d4" opacity="0.2"/>
    <rect x="520" y="286" width="270" height="22" rx="11" fill="#2563eb" opacity="0.14"/>
    <g transform="translate(272 202)">
      <circle cx="38" cy="38" r="54" fill="#ffffff" opacity="0.92"/>
      <path d="M6 30h64v38H6z" fill="#2563eb" opacity="0.9"/>
      <path d="M16 16h44v26H16z" fill="#06b6d4" opacity="0.9"/>
      <path d="M22 76h32" stroke="#1e3a8a" stroke-width="8" stroke-linecap="round"/>
    </g>
  </g>
  <text x="520" y="382" font-family="Inter,Segoe UI,Arial" font-size="40" font-weight="800" fill="#0f172a">Media Penyimpanan</text>
  <text x="522" y="420" font-family="Inter,Segoe UI,Arial" font-size="22" font-weight="600" fill="#475569">SSD, HDD, Cloud</text>
</svg>